<svg xmlns="http://www.w3.org/2000/svg" viewBox="0 0 600 180" role="img" aria-labelledby="logoTitle logoDesc">
  <title id="logoTitle">True Hue</title>
  <desc id="logoDesc">True Hue wordmark above a bar of twelve color swatches, one per seasonal sub-type.</desc>
  <text x="300" y="88"
        text-anchor="middle"
        font-family="-apple-system, BlinkMacSystemFont, 'Segoe UI', Roboto, Helvetica, Arial, sans-serif"
        font-size="72"
        font-weight="600"
        letter-spacing="-2"
        fill="currentColor">TrueHue</text>
  <g transform="translate(49,120)" aria-hidden="true">
    <rect x="0"   y="0" width="40" height="20" rx="3" fill="#ECA299"/>
    <rect x="42"  y="0" width="40" height="20" rx="3" fill="#F4A460"/>
    <rect x="84"  y="0" width="40" height="20" rx="3" fill="#FF6B5B"/>
    <rect x="126" y="0" width="40" height="20" rx="3" fill="#B0C4DE"/>
    <rect x="168" y="0" width="40" height="20" rx="3" fill="#3182C0"/>
    <rect x="210" y="0" width="40" height="20" rx="3" fill="#8FA5A5"/>
    <rect x="252" y="0" width="40" height="20" rx="3" fill="#A28955"/>
    <rect x="294" y="0" width="40" height="20" rx="3" fill="#CC7722"/>
    <rect x="336" y="0" width="40" height="20" rx="3" fill="#8B4513"/>
    <rect x="378" y="0" width="40" height="20" rx="3" fill="#7D1B4D"/>
    <rect x="420" y="0" width="40" height="20" rx="3" fill="#483D8B"/>
    <rect x="462" y="0" width="40" height="20" rx="3" fill="#DA4A94"/>
  </g>
</svg>
